<?xml version="1.0" encoding="UTF-8"?>
<svg xmlns="http://www.w3.org/2000/svg" xmlns:xlink="http://www.w3.org/1999/xlink" viewBox="0 0 144 144" width="144px" height="144px">
<g id="surface2033253">
<path style=" stroke:none;fill-rule:nonzero;fill:rgb(100%,100%,100%);fill-opacity:1;" d="M 79.570312 89.203125 L 94.453125 104.085938 C 92.179688 108.421875 91.945312 112.734375 94.335938 115.125 L 121.5 142.289062 C 124.921875 145.710938 132.375 143.835938 138.09375 138.09375 C 143.835938 132.351562 145.710938 124.921875 142.289062 121.5 L 115.148438 94.335938 C 112.734375 91.945312 108.421875 92.179688 104.085938 94.429688 L 89.203125 79.570312 Z M 51 0 C 22.828125 0 0 22.828125 0 51 C 0 79.171875 22.828125 102 51 102 C 79.171875 102 102 79.171875 102 51 C 102 22.828125 79.171875 0 51 0 Z M 51 90 C 29.460938 90 12 72.539062 12 51 C 12 29.460938 29.460938 12 51 12 C 72.539062 12 90 29.460938 90 51 C 90 72.539062 72.539062 90 51 90 Z M 51 90 "/>
</g>
</svg>
